# xmcd CD database file
#
# Track frame offsets:
#	150
#	15947
#	36882
#
# Disc length: 715 seconds
#
# Revision: 0
# Processed by: cddbd v1.5.1PL0 Copyright (c) Steve Scherf et al.
# Submitted via: CDex 1.51
#
DISCID=1502c903
DTITLE=Shela - orange
DYEAR=1900
DGENRE=J ポップ
TTITLE0=feel
TTITLE1=happiness
TTITLE2=flower fallin'
EXTD=
EXTT0=
EXTT1=
EXTT2=
PLAYORDER=
